# xmcd CD database file
#
# Track frame offsets:
#	150
#	15200
#	33397
#	50520
#	68717
#	89767
#	107445
#	125050
#	144562
#	159232
#	172230
#	188245
#	205165
#	224377
#
# Disc length: 3141 seconds
#
# Revision: 1
# Processed by: cddbd v1.5PL3 Copyright (c) Steve Scherf et al.
# Submitted via: jetAudio 5
#
DISCID=c60c430e
DTITLE=Mark Cocker - Stepping into the Light
DYEAR=1900
DGENRE=
TTITLE0=Long Time Gone
TTITLE1=Stepping into the light
TTITLE2=Diamond In The rough
TTITLE3=Reach Out
TTITLE4=Tonight
TTITLE5=Hale Bopp
TTITLE6=Talk
TTITLE7=River of Tears
TTITLE8=Jacob's Ladder
TTITLE9=Red Dawn
TTITLE10=That's What I Said
TTITLE11=When Love Runs You down
TTITLE12=Begin Again
TTITLE13=I Can See Forever
EXTD=
EXTT0=
EXTT1=
EXTT2=
EXTT3=
EXTT4=
EXTT5=
EXTT6=
EXTT7=
EXTT8=
EXTT9=
EXTT10=
EXTT11=
EXTT12=
EXTT13=
PLAYORDER=
